<svg width="164" height="13" viewBox="0 0 164 13" fill="none" xmlns="http://www.w3.org/2000/svg">
<path d="M7.64844 6.14062H12.1797C12.1797 6.21875 12.1823 6.32812 12.1875 6.46875C12.2031 6.83854 12.2109 7.08854 12.2109 7.21875C12.2109 8.82812 11.75 10.0781 10.8281 10.9688C9.90625 11.8594 8.60677 12.3047 6.92969 12.3047C5.99219 12.3047 5.15625 12.1667 4.42188 11.8906C3.6875 11.6146 3.04427 11.1979 2.49219 10.6406C1.95052 10.0885 1.53385 9.4401 1.24219 8.69531C0.955729 7.95052 0.8125 7.15365 0.8125 6.30469C0.8125 5.4401 0.958333 4.64323 1.25 3.91406C1.54688 3.1849 1.98438 2.54167 2.5625 1.98438C3.11979 1.4375 3.77344 1.02083 4.52344 0.734375C5.27344 0.447917 6.07552 0.304688 6.92969 0.304688C7.83073 0.304688 8.63542 0.46875 9.34375 0.796875C10.0573 1.125 10.6927 1.6276 11.25 2.30469L9.89062 3.32812C9.50521 2.88021 9.07031 2.54688 8.58594 2.32812C8.10156 2.10938 7.5599 2 6.96094 2C5.72135 2 4.70833 2.39844 3.92188 3.19531C3.14062 3.98698 2.75 5.01823 2.75 6.28906C2.75 7.58073 3.14062 8.63021 3.92188 9.4375C4.70833 10.2396 5.72656 10.6406 6.97656 10.6406C8.03906 10.6406 8.875 10.3932 9.48438 9.89844C10.0938 9.40365 10.3984 8.72917 10.3984 7.875V7.71094H7.64844V6.14062ZM19.1631 12V0.5625H21.0225V12H19.1631ZM31.0684 7.50781H34.2559L33.0841 4.89844C33.0164 4.73177 32.946 4.54167 32.8731 4.32812C32.8002 4.10938 32.7273 3.86719 32.6544 3.60156C32.5919 3.85156 32.5242 4.08594 32.4513 4.30469C32.3835 4.51823 32.3132 4.71615 32.2403 4.89844L31.0684 7.50781ZM36.2091 12L34.9122 9.05469H30.3809L29.0528 12H27.0997L32.6388 0.109375L38.17 12H36.2091ZM44.2081 12V0.109375L51.4738 7.10156C51.6717 7.29948 51.8722 7.51042 52.0753 7.73438C52.2784 7.95833 52.492 8.21094 52.7159 8.49219V0.5625H54.4347V12.4453L47.0206 5.32812C46.8227 5.13542 46.63 4.93229 46.4425 4.71875C46.2602 4.50521 46.0857 4.28125 45.9191 4.04688V12H44.2081ZM70.4563 0.5625H72.2922L74.4563 6.33594C74.5969 6.71615 74.7141 7.04948 74.8078 7.33594C74.9068 7.6224 74.9927 7.89062 75.0656 8.14062C75.2479 7.53646 75.438 6.94531 75.6359 6.36719C75.662 6.29427 75.6802 6.24479 75.6906 6.21875L77.9875 0.109375L80.4094 6.33594C80.524 6.63802 80.6307 6.9401 80.7297 7.24219C80.8339 7.54427 80.9302 7.84896 81.0188 8.15625C81.0708 7.92188 81.1411 7.66406 81.2297 7.38281C81.3182 7.10156 81.4328 6.76823 81.5734 6.38281L83.7219 0.5625H85.5734L81.1438 12.4453L78.5344 5.92188C78.4198 5.63021 78.3156 5.35156 78.2219 5.08594C78.1281 4.8151 78.0448 4.5599 77.9719 4.32031C77.8833 4.6276 77.7948 4.91667 77.7063 5.1875C77.6177 5.45312 77.5266 5.70833 77.4328 5.95312L74.8703 12.4453L70.4563 0.5625ZM91.8381 12V0.5625H93.6975V12H91.8381ZM101.329 12V0.5625H103.189V10.3359H107.345V12H101.329ZM113.821 12V0.5625H115.68V10.3359H119.836V12H113.821ZM126.343 12V0.5625H128.202V12H126.343ZM138.248 7.50781H141.436L140.264 4.89844C140.196 4.73177 140.126 4.54167 140.053 4.32812C139.98 4.10938 139.907 3.86719 139.834 3.60156C139.772 3.85156 139.704 4.08594 139.631 4.30469C139.564 4.51823 139.493 4.71615 139.42 4.89844L138.248 7.50781ZM143.389 12L142.092 9.05469H137.561L136.233 12H134.28L139.819 0.109375L145.35 12H143.389ZM160.716 6.35156C160.695 6.26302 160.662 6.01823 160.615 5.61719C160.573 5.28385 160.537 5.00781 160.505 4.78906C160.458 5.04948 160.391 5.3099 160.302 5.57031C160.219 5.83073 160.112 6.09635 159.982 6.36719L156.99 12.4609L153.997 6.24219C153.872 5.98698 153.763 5.73958 153.669 5.5C153.581 5.26042 153.503 5.02344 153.435 4.78906C153.43 5.02865 153.409 5.28125 153.372 5.54688C153.341 5.80729 153.292 6.08073 153.224 6.36719L151.997 12H150.287L152.99 0.078125L156.365 7.29688C156.417 7.41146 156.495 7.60156 156.599 7.86719C156.708 8.13281 156.839 8.46094 156.99 8.85156C157.099 8.52344 157.271 8.10677 157.505 7.60156C157.568 7.46615 157.615 7.36198 157.646 7.28906L160.943 0.078125L163.708 12H161.982L160.716 6.35156Z" fill="#3E69B2"/>
</svg>
